<mxfile host="65bd71144e" scale="1" border="20">
    <diagram id="36jMCSeGDqZy4riZEXlv" name="Authentication">
        <mxGraphModel dx="2186" dy="961" grid="1" gridSize="10" guides="1" tooltips="1" connect="1" arrows="1" fold="1" page="1" pageScale="1" pageWidth="1654" pageHeight="1169" background="#FFFFFF" math="0" shadow="0">
            <root>
                <mxCell id="0"/>
                <mxCell id="1" parent="0"/>
                <mxCell id="cc7gvlgYo79_k01iV3Yo-202" value="Shared Data" style="rounded=0;whiteSpace=wrap;html=1;verticalAlign=top;align=left;spacingLeft=10;spacingBottom=0;spacingTop=5;" vertex="1" parent="1">
                    <mxGeometry x="1168" y="470" width="220" height="190" as="geometry"/>
                </mxCell>
                <mxCell id="cc7gvlgYo79_k01iV3Yo-142" value="&lt;span&gt;&lt;b&gt;Authentication&amp;nbsp;&lt;/b&gt;&lt;/span&gt;" style="whiteSpace=wrap;html=1;align=left;verticalAlign=top;horizontal=1;spacingLeft=10;spacingTop=5;fontStyle=0;fillColor=#fff2cc;strokeColor=#d6b656;opacity=50;" vertex="1" parent="1">
                    <mxGeometry x="393" y="200" width="765" height="720" as="geometry"/>
                </mxCell>
                <mxCell id="cc7gvlgYo79_k01iV3Yo-143" value="&lt;font style=&quot;font-size: 24px&quot;&gt;User Service - Authentication&lt;/font&gt;" style="text;html=1;align=center;verticalAlign=middle;resizable=0;points=[];autosize=1;strokeColor=none;fillColor=none;fontStyle=5" vertex="1" parent="1">
                    <mxGeometry x="652" y="95" width="350" height="20" as="geometry"/>
                </mxCell>
                <mxCell id="cc7gvlgYo79_k01iV3Yo-144" style="edgeStyle=orthogonalEdgeStyle;html=1;exitX=0.5;exitY=0;exitDx=0;exitDy=0;exitPerimeter=0;entryX=0;entryY=0.5;entryDx=0;entryDy=0;rounded=0;" edge="1" parent="1" source="cc7gvlgYo79_k01iV3Yo-148" target="cc7gvlgYo79_k01iV3Yo-150">
                    <mxGeometry relative="1" as="geometry">
                        <mxPoint x="323" y="400" as="sourcePoint"/>
                        <Array as="points">
                            <mxPoint x="276" y="310"/>
                        </Array>
                    </mxGeometry>
                </mxCell>
                <mxCell id="cc7gvlgYo79_k01iV3Yo-145" value="Visitor" style="edgeLabel;html=1;align=center;verticalAlign=middle;resizable=0;points=[];" vertex="1" connectable="0" parent="cc7gvlgYo79_k01iV3Yo-144">
                    <mxGeometry x="0.356" y="-1" relative="1" as="geometry">
                        <mxPoint y="9" as="offset"/>
                    </mxGeometry>
                </mxCell>
                <mxCell id="cc7gvlgYo79_k01iV3Yo-146" style="edgeStyle=orthogonalEdgeStyle;rounded=0;html=1;exitX=0.5;exitY=1;exitDx=0;exitDy=0;exitPerimeter=0;entryX=0;entryY=0.5;entryDx=0;entryDy=0;labelBackgroundColor=#FEF9E7;" edge="1" parent="1" source="cc7gvlgYo79_k01iV3Yo-148" target="cc7gvlgYo79_k01iV3Yo-170">
                    <mxGeometry relative="1" as="geometry">
                        <mxPoint x="323" y="580" as="sourcePoint"/>
                        <Array as="points">
                            <mxPoint x="276" y="820"/>
                        </Array>
                    </mxGeometry>
                </mxCell>
                <mxCell id="cc7gvlgYo79_k01iV3Yo-147" value="User" style="edgeLabel;html=1;align=center;verticalAlign=middle;resizable=0;points=[];" vertex="1" connectable="0" parent="cc7gvlgYo79_k01iV3Yo-146">
                    <mxGeometry x="0.5808" y="-2" relative="1" as="geometry">
                        <mxPoint y="-12" as="offset"/>
                    </mxGeometry>
                </mxCell>
                <object placeholders="1" c4Name="Visitor/User" c4Type="Person" c4Description="Visitor -&gt; No account&#10;User -&gt; Has account" label="&lt;font style=&quot;font-size: 16px&quot;&gt;&lt;b&gt;%c4Name%&lt;/b&gt;&lt;/font&gt;&lt;div&gt;[%c4Type%]&lt;/div&gt;&lt;br&gt;&lt;div&gt;&lt;font style=&quot;font-size: 11px&quot;&gt;&lt;font color=&quot;#cccccc&quot;&gt;%c4Description%&lt;/font&gt;&lt;/div&gt;" id="cc7gvlgYo79_k01iV3Yo-148">
                    <mxCell style="html=1;fontSize=11;dashed=0;whitespace=wrap;fillColor=#083F75;strokeColor=#06315C;fontColor=#ffffff;shape=mxgraph.c4.person2;align=center;metaEdit=1;points=[[0.5,0,0],[1,0.5,0],[1,0.75,0],[0.75,1,0],[0.5,1,0],[0.25,1,0],[0,0.75,0],[0,0.5,0]];resizable=0;" vertex="1" parent="1">
                        <mxGeometry x="176" y="400" width="200" height="180" as="geometry"/>
                    </mxCell>
                </object>
                <mxCell id="cc7gvlgYo79_k01iV3Yo-149" value="" style="edgeStyle=orthogonalEdgeStyle;rounded=0;html=1;" edge="1" parent="1" source="cc7gvlgYo79_k01iV3Yo-150" target="cc7gvlgYo79_k01iV3Yo-154">
                    <mxGeometry relative="1" as="geometry"/>
                </mxCell>
                <mxCell id="cc7gvlgYo79_k01iV3Yo-150" value="Sign up" style="rounded=0;whiteSpace=wrap;html=1;fillColor=none;" vertex="1" parent="1">
                    <mxGeometry x="413" y="280" width="120" height="60" as="geometry"/>
                </mxCell>
                <mxCell id="cc7gvlgYo79_k01iV3Yo-151" value="&lt;span&gt;Username &lt;br&gt;or email &lt;br&gt;already exists&lt;/span&gt;" style="edgeStyle=orthogonalEdgeStyle;rounded=0;html=1;exitX=0.5;exitY=1;exitDx=0;exitDy=0;entryX=0.75;entryY=1;entryDx=0;entryDy=0;labelBackgroundColor=#FEF9E7;dashed=1;" edge="1" parent="1" source="cc7gvlgYo79_k01iV3Yo-154" target="cc7gvlgYo79_k01iV3Yo-150">
                    <mxGeometry x="0.0004" relative="1" as="geometry">
                        <Array as="points">
                            <mxPoint x="613" y="370"/>
                            <mxPoint x="503" y="370"/>
                        </Array>
                        <mxPoint as="offset"/>
                    </mxGeometry>
                </mxCell>
                <mxCell id="cc7gvlgYo79_k01iV3Yo-152" value="" style="edgeStyle=orthogonalEdgeStyle;rounded=0;html=1;labelBackgroundColor=#FEF9E7;" edge="1" parent="1" source="cc7gvlgYo79_k01iV3Yo-154" target="cc7gvlgYo79_k01iV3Yo-157">
                    <mxGeometry relative="1" as="geometry"/>
                </mxCell>
                <mxCell id="cc7gvlgYo79_k01iV3Yo-153" style="edgeStyle=orthogonalEdgeStyle;rounded=0;html=1;exitX=1;exitY=0.5;exitDx=0;exitDy=0;entryX=0;entryY=0.5;entryDx=0;entryDy=0;labelBackgroundColor=#FEF9E7;startArrow=none;startFill=0;endArrow=classic;endFill=1;endSize=6;" edge="1" parent="1" source="cc7gvlgYo79_k01iV3Yo-154" target="cc7gvlgYo79_k01iV3Yo-163">
                    <mxGeometry relative="1" as="geometry">
                        <Array as="points">
                            <mxPoint x="653" y="410"/>
                        </Array>
                    </mxGeometry>
                </mxCell>
                <mxCell id="cc7gvlgYo79_k01iV3Yo-154" value="any&lt;br&gt;duplicate&lt;br&gt;?" style="rhombus;whiteSpace=wrap;html=1;rounded=0;fillColor=none;" vertex="1" parent="1">
                    <mxGeometry x="573" y="270" width="80" height="80" as="geometry"/>
                </mxCell>
                <mxCell id="cc7gvlgYo79_k01iV3Yo-155" style="edgeStyle=orthogonalEdgeStyle;rounded=0;html=1;labelBackgroundColor=#FEF9E7;startArrow=oval;startFill=1;endArrow=oval;endFill=0;endSize=6;" edge="1" parent="1">
                    <mxGeometry relative="1" as="geometry">
                        <mxPoint x="853" y="460" as="targetPoint"/>
                        <mxPoint x="853" y="310" as="sourcePoint"/>
                    </mxGeometry>
                </mxCell>
                <mxCell id="cc7gvlgYo79_k01iV3Yo-156" style="edgeStyle=orthogonalEdgeStyle;rounded=0;html=1;exitX=1;exitY=0.5;exitDx=0;exitDy=0;entryX=0;entryY=0;entryDx=0;entryDy=0;labelBackgroundColor=#FEF9E7;startArrow=none;startFill=0;endArrow=classic;endFill=1;endSize=6;" edge="1" parent="1" source="cc7gvlgYo79_k01iV3Yo-157" target="cc7gvlgYo79_k01iV3Yo-178">
                    <mxGeometry relative="1" as="geometry">
                        <Array as="points">
                            <mxPoint x="893" y="310"/>
                            <mxPoint x="893" y="340"/>
                        </Array>
                    </mxGeometry>
                </mxCell>
                <mxCell id="cc7gvlgYo79_k01iV3Yo-157" value="Verify with &lt;br&gt;email" style="whiteSpace=wrap;html=1;rounded=0;" vertex="1" parent="1">
                    <mxGeometry x="693" y="280" width="120" height="60" as="geometry"/>
                </mxCell>
                <mxCell id="cc7gvlgYo79_k01iV3Yo-158" value="Token expires" style="edgeStyle=orthogonalEdgeStyle;rounded=0;html=1;exitX=0;exitY=0;exitDx=0;exitDy=15;exitPerimeter=0;entryX=0.5;entryY=1;entryDx=0;entryDy=0;labelBackgroundColor=#FEF9E7;dashed=1;" edge="1" parent="1" source="cc7gvlgYo79_k01iV3Yo-201" target="cc7gvlgYo79_k01iV3Yo-150">
                    <mxGeometry x="0.3404" relative="1" as="geometry">
                        <mxPoint as="offset"/>
                    </mxGeometry>
                </mxCell>
                <mxCell id="cc7gvlgYo79_k01iV3Yo-159" style="edgeStyle=orthogonalEdgeStyle;rounded=0;html=1;exitX=0.855;exitY=0;exitDx=0;exitDy=4.35;exitPerimeter=0;entryX=0.5;entryY=1;entryDx=0;entryDy=0;labelBackgroundColor=#FEF9E7;startArrow=classic;startFill=1;endArrow=classic;endFill=1;endSize=6;" edge="1" parent="1" source="cc7gvlgYo79_k01iV3Yo-201" target="cc7gvlgYo79_k01iV3Yo-178">
                    <mxGeometry relative="1" as="geometry">
                        <Array as="points">
                            <mxPoint x="1306" y="430"/>
                            <mxPoint x="933" y="430"/>
                        </Array>
                    </mxGeometry>
                </mxCell>
                <mxCell id="cc7gvlgYo79_k01iV3Yo-161" value="Generate and store&lt;br&gt;verification tokens&lt;br&gt;with expiry" style="edgeStyle=orthogonalEdgeStyle;rounded=0;html=1;entryX=0.5;entryY=0;entryDx=0;entryDy=0;entryPerimeter=0;labelBackgroundColor=#FEF9E7;startArrow=oval;startFill=1;endArrow=classic;endFill=1;endSize=6;" edge="1" parent="1" target="cc7gvlgYo79_k01iV3Yo-201">
                    <mxGeometry x="-0.094" relative="1" as="geometry">
                        <mxPoint as="offset"/>
                        <mxPoint x="838" y="410" as="sourcePoint"/>
                        <Array as="points">
                            <mxPoint x="838" y="460"/>
                            <mxPoint x="1278" y="460"/>
                        </Array>
                    </mxGeometry>
                </mxCell>
                <mxCell id="cc7gvlgYo79_k01iV3Yo-162" style="edgeStyle=orthogonalEdgeStyle;rounded=0;html=1;exitX=1;exitY=0.5;exitDx=0;exitDy=0;entryX=0;entryY=1;entryDx=0;entryDy=0;labelBackgroundColor=#FEF9E7;startArrow=none;startFill=0;endArrow=classic;endFill=1;endSize=6;" edge="1" parent="1" source="cc7gvlgYo79_k01iV3Yo-163" target="cc7gvlgYo79_k01iV3Yo-178">
                    <mxGeometry relative="1" as="geometry">
                        <Array as="points">
                            <mxPoint x="893" y="410"/>
                            <mxPoint x="893" y="380"/>
                        </Array>
                    </mxGeometry>
                </mxCell>
                <mxCell id="cc7gvlgYo79_k01iV3Yo-163" value="Verify with &lt;br&gt;OAuth&lt;br&gt;(Github)" style="whiteSpace=wrap;html=1;rounded=0;" vertex="1" parent="1">
                    <mxGeometry x="693" y="380" width="120" height="60" as="geometry"/>
                </mxCell>
                <mxCell id="cc7gvlgYo79_k01iV3Yo-164" value="Dashboard" style="whiteSpace=wrap;html=1;rounded=0;" vertex="1" parent="1">
                    <mxGeometry x="1358" y="330" width="120" height="60" as="geometry"/>
                </mxCell>
                <mxCell id="cc7gvlgYo79_k01iV3Yo-165" style="edgeStyle=orthogonalEdgeStyle;rounded=0;html=1;exitX=0.5;exitY=1;exitDx=0;exitDy=0;exitPerimeter=0;entryX=0.5;entryY=0;entryDx=0;entryDy=0;labelBackgroundColor=#FEF9E7;startArrow=classic;startFill=1;" edge="1" parent="1" source="cc7gvlgYo79_k01iV3Yo-200" target="cc7gvlgYo79_k01iV3Yo-173">
                    <mxGeometry relative="1" as="geometry">
                        <Array as="points">
                            <mxPoint x="1278" y="730"/>
                            <mxPoint x="1083" y="730"/>
                        </Array>
                    </mxGeometry>
                </mxCell>
                <mxCell id="cc7gvlgYo79_k01iV3Yo-167" value="Store user credentials, &lt;br&gt;hashed password" style="edgeStyle=orthogonalEdgeStyle;rounded=0;html=1;entryX=0;entryY=0;entryDx=0;entryDy=37.5;entryPerimeter=0;labelBackgroundColor=#FEF9E7;startArrow=oval;startFill=1;" edge="1" parent="1" target="cc7gvlgYo79_k01iV3Yo-200">
                    <mxGeometry x="-0.027" relative="1" as="geometry">
                        <mxPoint as="offset"/>
                        <mxPoint x="1083" y="360" as="sourcePoint"/>
                        <Array as="points">
                            <mxPoint x="1083" y="618"/>
                        </Array>
                    </mxGeometry>
                </mxCell>
                <mxCell id="cc7gvlgYo79_k01iV3Yo-168" value="" style="edgeStyle=orthogonalEdgeStyle;rounded=0;html=1;labelBackgroundColor=#FEF9E7;" edge="1" parent="1" source="cc7gvlgYo79_k01iV3Yo-170" target="cc7gvlgYo79_k01iV3Yo-173">
                    <mxGeometry relative="1" as="geometry"/>
                </mxCell>
                <mxCell id="cc7gvlgYo79_k01iV3Yo-169" style="edgeStyle=orthogonalEdgeStyle;rounded=0;html=1;exitX=0.5;exitY=0;exitDx=0;exitDy=0;entryX=0.5;entryY=1;entryDx=0;entryDy=0;labelBackgroundColor=#FEF9E7;startArrow=none;startFill=0;endArrow=classic;endFill=1;endSize=6;" edge="1" parent="1" source="cc7gvlgYo79_k01iV3Yo-170" target="cc7gvlgYo79_k01iV3Yo-175">
                    <mxGeometry relative="1" as="geometry"/>
                </mxCell>
                <mxCell id="cc7gvlgYo79_k01iV3Yo-170" value="Login" style="rounded=0;whiteSpace=wrap;html=1;" vertex="1" parent="1">
                    <mxGeometry x="413" y="790" width="120" height="60" as="geometry"/>
                </mxCell>
                <mxCell id="cc7gvlgYo79_k01iV3Yo-171" value="Invalid&amp;nbsp;&lt;br&gt;credential" style="edgeStyle=orthogonalEdgeStyle;rounded=0;html=1;exitX=0.5;exitY=1;exitDx=0;exitDy=0;entryX=0.5;entryY=1;entryDx=0;entryDy=0;labelBackgroundColor=#FEF9E7;startArrow=none;startFill=0;dashed=1;" edge="1" parent="1" source="cc7gvlgYo79_k01iV3Yo-173" target="cc7gvlgYo79_k01iV3Yo-170">
                    <mxGeometry relative="1" as="geometry">
                        <Array as="points">
                            <mxPoint x="1083" y="890"/>
                            <mxPoint x="473" y="890"/>
                        </Array>
                    </mxGeometry>
                </mxCell>
                <mxCell id="cc7gvlgYo79_k01iV3Yo-172" style="edgeStyle=orthogonalEdgeStyle;rounded=0;html=1;exitX=1;exitY=0.5;exitDx=0;exitDy=0;entryX=0.5;entryY=1;entryDx=0;entryDy=0;labelBackgroundColor=#FEF9E7;startArrow=none;startFill=0;" edge="1" parent="1" source="cc7gvlgYo79_k01iV3Yo-173" target="cc7gvlgYo79_k01iV3Yo-164">
                    <mxGeometry relative="1" as="geometry">
                        <mxPoint x="1153" y="520" as="targetPoint"/>
                    </mxGeometry>
                </mxCell>
                <mxCell id="cc7gvlgYo79_k01iV3Yo-173" value="valid credentials&lt;br&gt;?" style="rhombus;whiteSpace=wrap;html=1;rounded=0;" vertex="1" parent="1">
                    <mxGeometry x="1043" y="780" width="80" height="80" as="geometry"/>
                </mxCell>
                <mxCell id="cc7gvlgYo79_k01iV3Yo-174" value="" style="edgeStyle=orthogonalEdgeStyle;rounded=0;html=1;labelBackgroundColor=#FEF9E7;startArrow=none;startFill=0;endArrow=classic;endFill=1;endSize=6;" edge="1" parent="1" source="cc7gvlgYo79_k01iV3Yo-175" target="cc7gvlgYo79_k01iV3Yo-180">
                    <mxGeometry relative="1" as="geometry"/>
                </mxCell>
                <mxCell id="cc7gvlgYo79_k01iV3Yo-175" value="Forget password" style="rounded=0;whiteSpace=wrap;html=1;" vertex="1" parent="1">
                    <mxGeometry x="413" y="660" width="120" height="60" as="geometry"/>
                </mxCell>
                <mxCell id="cc7gvlgYo79_k01iV3Yo-176" style="edgeStyle=orthogonalEdgeStyle;rounded=0;html=1;exitX=1;exitY=0.5;exitDx=0;exitDy=0;entryX=0;entryY=0.5;entryDx=0;entryDy=0;labelBackgroundColor=#FEF9E7;startArrow=none;startFill=0;endArrow=classic;endFill=1;endSize=6;" edge="1" parent="1" source="cc7gvlgYo79_k01iV3Yo-178" target="cc7gvlgYo79_k01iV3Yo-164">
                    <mxGeometry relative="1" as="geometry"/>
                </mxCell>
                <mxCell id="cc7gvlgYo79_k01iV3Yo-177" value="Invalid&lt;br&gt;token" style="edgeStyle=orthogonalEdgeStyle;rounded=0;html=1;exitX=0.5;exitY=0;exitDx=0;exitDy=0;entryX=0.5;entryY=0;entryDx=0;entryDy=0;dashed=1;labelBackgroundColor=#FEF9E7;startArrow=none;startFill=0;endArrow=classic;endFill=1;endSize=6;" edge="1" parent="1" source="cc7gvlgYo79_k01iV3Yo-178" target="cc7gvlgYo79_k01iV3Yo-150">
                    <mxGeometry relative="1" as="geometry">
                        <Array as="points">
                            <mxPoint x="933" y="240"/>
                            <mxPoint x="473" y="240"/>
                        </Array>
                    </mxGeometry>
                </mxCell>
                <mxCell id="cc7gvlgYo79_k01iV3Yo-178" value="valid &lt;br&gt;token?" style="rhombus;whiteSpace=wrap;html=1;rounded=0;" vertex="1" parent="1">
                    <mxGeometry x="893" y="320" width="80" height="80" as="geometry"/>
                </mxCell>
                <mxCell id="cc7gvlgYo79_k01iV3Yo-179" value="" style="edgeStyle=orthogonalEdgeStyle;rounded=0;html=1;labelBackgroundColor=#FEF9E7;startArrow=none;startFill=0;endArrow=classic;endFill=1;endSize=6;" edge="1" parent="1" source="cc7gvlgYo79_k01iV3Yo-180" target="cc7gvlgYo79_k01iV3Yo-183">
                    <mxGeometry relative="1" as="geometry"/>
                </mxCell>
                <mxCell id="cc7gvlgYo79_k01iV3Yo-180" value="Verify with &lt;br&gt;email" style="whiteSpace=wrap;html=1;rounded=0;" vertex="1" parent="1">
                    <mxGeometry x="573" y="660" width="120" height="60" as="geometry"/>
                </mxCell>
                <mxCell id="cc7gvlgYo79_k01iV3Yo-181" value="" style="edgeStyle=orthogonalEdgeStyle;rounded=0;html=1;labelBackgroundColor=#FEF9E7;startArrow=none;startFill=0;endArrow=classic;endFill=1;endSize=6;" edge="1" parent="1" source="cc7gvlgYo79_k01iV3Yo-183" target="cc7gvlgYo79_k01iV3Yo-186">
                    <mxGeometry relative="1" as="geometry"/>
                </mxCell>
                <mxCell id="cc7gvlgYo79_k01iV3Yo-182" value="Invalid&lt;br&gt;token" style="edgeStyle=orthogonalEdgeStyle;rounded=0;html=1;exitX=0.5;exitY=0;exitDx=0;exitDy=0;entryX=0.5;entryY=0;entryDx=0;entryDy=0;labelBackgroundColor=#FEF9E7;startArrow=none;startFill=0;endArrow=classic;endFill=1;endSize=6;dashed=1;" edge="1" parent="1" source="cc7gvlgYo79_k01iV3Yo-183" target="cc7gvlgYo79_k01iV3Yo-175">
                    <mxGeometry relative="1" as="geometry">
                        <Array as="points">
                            <mxPoint x="783" y="630"/>
                            <mxPoint x="473" y="630"/>
                        </Array>
                    </mxGeometry>
                </mxCell>
                <mxCell id="cc7gvlgYo79_k01iV3Yo-183" value="valid &lt;br&gt;token?" style="rhombus;whiteSpace=wrap;html=1;rounded=0;" vertex="1" parent="1">
                    <mxGeometry x="743" y="650" width="80" height="80" as="geometry"/>
                </mxCell>
                <mxCell id="cc7gvlgYo79_k01iV3Yo-184" value="Update&amp;nbsp;&lt;br&gt;hashed&lt;br&gt;password" style="edgeStyle=orthogonalEdgeStyle;rounded=0;html=1;entryX=0.145;entryY=1;entryDx=0;entryDy=-4.35;entryPerimeter=0;labelBackgroundColor=#FEF9E7;startArrow=oval;startFill=1;endArrow=classic;endFill=1;endSize=6;" edge="1" parent="1" target="cc7gvlgYo79_k01iV3Yo-200">
                    <mxGeometry x="-0.4844" relative="1" as="geometry">
                        <mxPoint x="1013" y="690" as="sourcePoint"/>
                        <Array as="points">
                            <mxPoint x="1250" y="690"/>
                        </Array>
                        <mxPoint as="offset"/>
                    </mxGeometry>
                </mxCell>
                <mxCell id="cc7gvlgYo79_k01iV3Yo-185" style="edgeStyle=orthogonalEdgeStyle;rounded=0;html=1;exitX=1;exitY=0.5;exitDx=0;exitDy=0;entryX=0.75;entryY=0;entryDx=0;entryDy=0;labelBackgroundColor=#FEF9E7;startArrow=none;startFill=0;endArrow=classic;endFill=1;endSize=6;" edge="1" parent="1" source="cc7gvlgYo79_k01iV3Yo-186" target="cc7gvlgYo79_k01iV3Yo-170">
                    <mxGeometry relative="1" as="geometry">
                        <Array as="points">
                            <mxPoint x="1013" y="690"/>
                            <mxPoint x="1013" y="755"/>
                            <mxPoint x="503" y="755"/>
                        </Array>
                    </mxGeometry>
                </mxCell>
                <mxCell id="cc7gvlgYo79_k01iV3Yo-186" value="Set new password" style="whiteSpace=wrap;html=1;rounded=0;" vertex="1" parent="1">
                    <mxGeometry x="873" y="660" width="120" height="60" as="geometry"/>
                </mxCell>
                <mxCell id="cc7gvlgYo79_k01iV3Yo-187" value="" style="group" vertex="1" connectable="0" parent="1">
                    <mxGeometry x="176" y="940" width="215" height="140" as="geometry"/>
                </mxCell>
                <mxCell id="cc7gvlgYo79_k01iV3Yo-188" value="&lt;span style=&quot;&quot;&gt;Legend&lt;/span&gt;" style="rounded=0;whiteSpace=wrap;html=1;labelBackgroundColor=none;comic=0;align=left;labelPadding=0;metaEdit=0;horizontal=1;labelPosition=center;verticalLabelPosition=middle;verticalAlign=top;spacingRight=0;spacingLeft=0;labelBorderColor=none;fontColor=none;noLabel=1;" vertex="1" parent="cc7gvlgYo79_k01iV3Yo-187">
                    <mxGeometry width="210" height="140" as="geometry"/>
                </mxCell>
                <mxCell id="cc7gvlgYo79_k01iV3Yo-189" value="" style="endArrow=classic;html=1;rounded=0;labelBackgroundColor=default;strokeColor=default;fontFamily=Helvetica;fontSize=11;fontColor=default;shape=connector;endFill=1;" edge="1" parent="cc7gvlgYo79_k01iV3Yo-187">
                    <mxGeometry width="50" height="50" relative="1" as="geometry">
                        <mxPoint x="10" y="45" as="sourcePoint"/>
                        <mxPoint x="80" y="45" as="targetPoint"/>
                    </mxGeometry>
                </mxCell>
                <mxCell id="cc7gvlgYo79_k01iV3Yo-190" value="Happy path" style="text;html=1;align=left;verticalAlign=middle;resizable=0;points=[];autosize=1;strokeColor=none;fillColor=none;fontSize=11;fontFamily=Helvetica;fontColor=default;" vertex="1" parent="cc7gvlgYo79_k01iV3Yo-187">
                    <mxGeometry x="85" y="30" width="80" height="30" as="geometry"/>
                </mxCell>
                <mxCell id="cc7gvlgYo79_k01iV3Yo-191" value="" style="endArrow=classic;html=1;rounded=0;labelBackgroundColor=default;strokeColor=default;fontFamily=Helvetica;fontSize=11;fontColor=default;shape=connector;endFill=1;dashed=1;" edge="1" parent="cc7gvlgYo79_k01iV3Yo-187">
                    <mxGeometry width="50" height="50" relative="1" as="geometry">
                        <mxPoint x="10" y="69.79999999999995" as="sourcePoint"/>
                        <mxPoint x="80" y="69.79999999999995" as="targetPoint"/>
                    </mxGeometry>
                </mxCell>
                <mxCell id="cc7gvlgYo79_k01iV3Yo-192" value="Invalid path" style="text;html=1;align=left;verticalAlign=middle;resizable=0;points=[];autosize=1;strokeColor=none;fillColor=none;fontSize=11;fontFamily=Helvetica;fontColor=default;" vertex="1" parent="cc7gvlgYo79_k01iV3Yo-187">
                    <mxGeometry x="85" y="55" width="80" height="30" as="geometry"/>
                </mxCell>
                <mxCell id="cc7gvlgYo79_k01iV3Yo-193" value="Legend" style="text;html=1;align=center;verticalAlign=middle;resizable=0;points=[];autosize=1;strokeColor=none;fillColor=none;fontSize=11;fontFamily=Helvetica;fontColor=default;fontStyle=5" vertex="1" parent="cc7gvlgYo79_k01iV3Yo-187">
                    <mxGeometry y="5" width="60" height="30" as="geometry"/>
                </mxCell>
                <mxCell id="cc7gvlgYo79_k01iV3Yo-194" value="Independent path" style="text;html=1;align=left;verticalAlign=middle;resizable=0;points=[];autosize=1;strokeColor=none;fillColor=none;fontSize=11;fontFamily=Helvetica;fontColor=default;" vertex="1" parent="cc7gvlgYo79_k01iV3Yo-187">
                    <mxGeometry x="85" y="86" width="100" height="20" as="geometry"/>
                </mxCell>
                <mxCell id="cc7gvlgYo79_k01iV3Yo-195" value="" style="endArrow=oval;html=1;rounded=0;labelBackgroundColor=default;strokeColor=default;fontFamily=Helvetica;fontSize=11;fontColor=default;shape=connector;endFill=0;" edge="1" parent="cc7gvlgYo79_k01iV3Yo-187">
                    <mxGeometry width="50" height="50" relative="1" as="geometry">
                        <mxPoint x="10" y="96" as="sourcePoint"/>
                        <mxPoint x="75" y="96" as="targetPoint"/>
                    </mxGeometry>
                </mxCell>
                <mxCell id="cc7gvlgYo79_k01iV3Yo-196" value="Concurrent path" style="text;html=1;align=left;verticalAlign=middle;resizable=0;points=[];autosize=1;strokeColor=none;fillColor=none;fontSize=11;fontFamily=Helvetica;fontColor=default;" vertex="1" parent="cc7gvlgYo79_k01iV3Yo-187">
                    <mxGeometry x="85" y="106" width="90" height="20" as="geometry"/>
                </mxCell>
                <mxCell id="cc7gvlgYo79_k01iV3Yo-197" value="" style="endArrow=oval;html=1;rounded=0;labelBackgroundColor=default;strokeColor=default;fontFamily=Helvetica;fontSize=11;fontColor=default;shape=connector;endFill=1;" edge="1" parent="cc7gvlgYo79_k01iV3Yo-187">
                    <mxGeometry width="50" height="50" relative="1" as="geometry">
                        <mxPoint x="10" y="116" as="sourcePoint"/>
                        <mxPoint x="75" y="116" as="targetPoint"/>
                    </mxGeometry>
                </mxCell>
                <mxCell id="cc7gvlgYo79_k01iV3Yo-200" value="Planetscale" style="shape=cylinder3;whiteSpace=wrap;html=1;boundedLbl=1;backgroundOutline=1;size=15;" vertex="1" parent="1">
                    <mxGeometry x="1238" y="580" width="80" height="60" as="geometry"/>
                </mxCell>
                <mxCell id="cc7gvlgYo79_k01iV3Yo-201" value="Redis" style="shape=cylinder3;whiteSpace=wrap;html=1;boundedLbl=1;backgroundOutline=1;size=15;" vertex="1" parent="1">
                    <mxGeometry x="1238" y="500" width="80" height="60" as="geometry"/>
                </mxCell>
            </root>
        </mxGraphModel>
    </diagram>
</mxfile>